<?xml version="1.0" encoding="utf-8"?>
<!-- Generator: Adobe Illustrator 26.1.0, SVG Export Plug-In . SVG Version: 6.00 Build 0)  -->
<svg version="1.1" id="Camada_1" xmlns="http://www.w3.org/2000/svg" xmlns:xlink="http://www.w3.org/1999/xlink" x="0px" y="0px"
	 viewBox="0 0 1186.8 164" style="enable-background:new 0 0 1186.8 164;" xml:space="preserve">
<style type="text/css">
	.st0{fill:#FFFFFF;}
	.st1{fill:#6ECC8E;}
	.st2{fill:#96D9E0;}
	.st3{fill:#CC697C;}
	.st4{fill:#DA85DD;}
</style>
<g>
	<g>
		<g>
			<path class="st0" d="M266.2,121.9c-7.1-4.2-12.7-9.9-16.9-17.1c-4.1-7.2-6.2-15.3-6.2-24.1c0-8.8,2.1-16.9,6.2-24.1
				c4.1-7.2,9.7-12.9,16.9-17.1c7.1-4.2,14.9-6.3,23.4-6.3c7.8,0,14.6,2,20.5,6.1c5.9,4.1,10.5,9.7,13.6,16.9
				c3.2,7.2,4.7,15.4,4.6,24.6c0,9.2-1.6,17.4-4.8,24.6c-3.2,7.2-7.7,12.8-13.5,16.9c-5.9,4.1-12.7,6.1-20.4,6.1
				C281.1,128.2,273.3,126.1,266.2,121.9z M272.3,160.7c-6.2-2.2-11.6-5.5-16.4-9.8l13.4-15.4c3.1,2.5,6.6,4.5,10.6,6.1
				c3.9,1.6,8.1,2.2,12.4,2c5.4-0.2,10.2-1.7,14.3-4.5c4.2-2.8,7.4-6.7,9.8-11.8c2.3-5.1,3.5-11.3,3.5-18.5v-73h23.3v73
				c0,11-2.3,20.7-6.9,29c-4.6,8.4-10.8,14.8-18.6,19.4c-7.8,4.5-16.3,6.8-25.5,6.8C285.1,164,278.5,162.9,272.3,160.7z
				 M306.8,103.5c4.1-2.3,7.3-5.5,9.6-9.5c2.3-4,3.5-8.5,3.5-13.4c0-4.9-1.2-9.3-3.5-13.4c-2.3-4-5.5-7.2-9.6-9.5
				c-4.1-2.3-8.6-3.5-13.6-3.5s-9.6,1.1-13.6,3.4c-4.1,2.3-7.3,5.4-9.7,9.5c-2.4,4.1-3.6,8.5-3.6,13.4c0,4.9,1.2,9.4,3.6,13.4
				c2.4,4.1,5.6,7.2,9.7,9.5c4.1,2.3,8.6,3.4,13.6,3.4S302.8,105.9,306.8,103.5z"/>
			<path class="st0" d="M381.1,121.9c-7.1-4.2-12.7-9.9-16.9-17.1c-4.1-7.2-6.2-15.3-6.2-24.1c0-8.8,2.1-16.9,6.2-24.1
				c4.1-7.2,9.7-12.9,16.9-17.1c7.1-4.2,14.9-6.3,23.4-6.3c7.8,0,14.6,2,20.4,6.1c5.9,4.1,10.4,9.7,13.5,16.9
				c3.2,7.2,4.8,15.4,4.8,24.6c0,9.2-1.6,17.4-4.8,24.6c-3.2,7.2-7.7,12.8-13.5,16.9c-5.9,4.1-12.7,6.1-20.4,6.1
				C396,128.2,388.2,126.1,381.1,121.9z M421.7,103.5c4.1-2.3,7.3-5.5,9.6-9.6c2.3-4.1,3.5-8.5,3.5-13.3c0-4.8-1.2-9.2-3.5-13.3
				c-2.3-4.1-5.5-7.3-9.6-9.6c-4.1-2.3-8.6-3.5-13.6-3.5s-9.6,1.1-13.6,3.4c-4.1,2.3-7.3,5.4-9.7,9.5c-2.4,4.1-3.6,8.5-3.6,13.4
				c0,4.9,1.2,9.4,3.6,13.4c2.4,4.1,5.6,7.2,9.8,9.5c4.1,2.3,8.6,3.4,13.5,3.4C413.1,107,417.7,105.9,421.7,103.5z M434.8,35.9h23.3
				v89.6h-23.3V35.9z"/>
			<path class="st0" d="M477,35.9h23.1v89.6H477V35.9z M529.4,60.4c-2.7-3.3-6.4-5-11.2-5c-3.7,0-6.9,1-9.6,2.9
				c-2.7,1.9-4.8,4.5-6.3,7.6c-1.5,3.2-2.2,6.7-2.2,10.5h-8.4c0.4-8.1,2-15.5,4.8-22c2.9-6.6,7-11.7,12.3-15.5
				c5.3-3.8,11.6-5.6,18.7-5.6c5.9,0,11,1.7,15.4,5.1c4.4,3.4,7.8,8.2,10.1,14.3c2.3,6.2,3.5,13.4,3.5,21.6v51.3h-23.1V74.2
				C533.4,68.4,532.1,63.8,529.4,60.4z M585.5,60.5c-2.9-3.4-6.8-5.1-11.6-5.1c-3.6,0-6.7,1-9.3,2.9c-2.6,1.9-4.6,4.5-6,7.6
				c-1.4,3.2-2.1,6.7-2.1,10.5h-9.3c0-8.6,1.3-16.2,3.9-22.7c2.6-6.5,6.5-11.6,11.7-15.1c5.1-3.6,11.2-5.4,18.3-5.4
				c6.3,0,11.9,1.7,16.8,5.1c4.8,3.4,8.6,8.2,11.2,14.3c2.6,6.2,3.9,13.4,3.9,21.6v51.3h-23.1V74.2
				C589.9,68.5,588.4,63.9,585.5,60.5z"/>
			<path class="st0" d="M652.3,121.9c-7.4-4.2-13.3-9.9-17.7-17.1c-4.4-7.2-6.5-15.3-6.5-24.1c0-8.8,2.2-16.9,6.5-24.1
				c4.4-7.2,10.2-12.9,17.7-17.1c7.4-4.2,15.5-6.3,24.4-6.3c9.8,0,18.3,2.5,25.4,7.4c7.1,4.9,12.4,11.7,15.9,20.3
				c3.5,8.7,4.7,18.3,3.6,28.8h-81.2V72.1h59c-0.6-3.6-1.9-6.8-3.8-9.8c-1.9-2.9-4.5-5.2-7.7-6.9c-3.2-1.7-6.9-2.5-11.1-2.5
				c-4.9,0-9.3,1.2-13.1,3.5c-3.8,2.3-6.8,5.6-9.1,9.9c-2.2,4.2-3.3,9.1-3.3,14.4c0,5.3,1.1,9.9,3.3,14.1c2.2,4.1,5.2,7.4,9.1,9.9
				c3.8,2.5,8.2,3.7,13.1,3.9c4.3,0.2,8.4-0.4,12.2-1.9c3.8-1.5,7-3.6,9.5-6.4l15.6,12.4c-4.3,4.8-9.8,8.6-16.5,11.4
				c-6.7,2.8-13.6,4.2-20.8,4.2C667.8,128.2,659.7,126.1,652.3,121.9z"/>
			<path class="st0" d="M738.5,35.9h23.1v89.6h-23.1V35.9z M758.2,56.7c3.2-6.9,7.6-12.2,13.2-16c5.6-3.8,11.7-5.7,18.6-5.7v25.5
				c-5.1,0-9.9,0.8-14.3,2.4c-4.4,1.6-7.8,3.9-10.3,7s-3.8,6.4-3.8,10.1h-8.2C753.4,71.3,755,63.6,758.2,56.7z"/>
			<path class="st0" d="M802.7,0h23.1v125.5h-23.1V0z M835.8,122.1c-5.9-4.1-10.4-9.7-13.5-16.9c-3.2-7.2-4.8-15.4-4.8-24.6
				c0-9.2,1.6-17.4,4.8-24.6c3.2-7.2,7.7-12.8,13.5-16.9c5.9-4.1,12.7-6.1,20.4-6.1c8.6,0,16.4,2.1,23.5,6.3
				c7,4.2,12.6,9.9,16.8,17.1c4.1,7.2,6.2,15.3,6.2,24.1c0,8.8-2.1,16.9-6.2,24.1c-4.1,7.2-9.7,12.9-16.8,17.1
				c-7.1,4.2-14.9,6.3-23.5,6.3C848.5,128.2,841.7,126.1,835.8,122.1z M866.3,103.6c4.2-2.3,7.4-5.4,9.7-9.5
				c2.3-4.1,3.4-8.5,3.4-13.4c0-4.9-1.1-9.4-3.4-13.4c-2.3-4.1-5.5-7.2-9.7-9.5c-4.2-2.3-8.7-3.4-13.6-3.4c-4.9,0-9.4,1.2-13.5,3.5
				s-7.4,5.5-9.8,9.6c-2.4,4.1-3.6,8.5-3.6,13.3c0,4.8,1.2,9.2,3.6,13.3c2.4,4.1,5.6,7.3,9.8,9.6s8.6,3.5,13.4,3.5
				C857.5,107,862.1,105.9,866.3,103.6z"/>
			<path class="st0" d="M939.1,121.8c-7.3-4.2-13.1-10-17.3-17.3c-4.2-7.3-6.4-15.2-6.4-23.8s2.1-16.6,6.4-23.8
				c4.2-7.3,10-13.1,17.3-17.3c7.3-4.2,15.2-6.4,23.8-6.4c8.6,0,16.6,2.1,23.8,6.4c7.3,4.2,13.1,10,17.3,17.3
				c4.2,7.3,6.4,15.2,6.4,23.8s-2.1,16.6-6.4,23.8c-4.2,7.3-10,13.1-17.3,17.3c-7.3,4.2-15.2,6.4-23.8,6.4
				C954.3,128.2,946.4,126,939.1,121.8z M975.1,102.6c3.7-2.2,6.7-5.3,8.9-9.1c2.2-3.9,3.3-8.2,3.3-12.8s-1.1-8.9-3.3-12.8
				c-2.2-3.9-5.2-6.9-8.9-9.1c-3.7-2.2-7.8-3.3-12.2-3.3c-4.3,0-8.3,1.1-12.1,3.3c-3.8,2.2-6.8,5.3-9,9.1c-2.2,3.9-3.3,8.2-3.3,12.8
				s1.1,8.9,3.3,12.8c2.2,3.9,5.2,6.9,8.9,9.1c3.7,2.2,7.8,3.3,12.2,3.3C967.4,105.9,971.4,104.8,975.1,102.6z"/>
			<path class="st0" d="M1058.5,74.2l13.4,17.7l-26,33.5h-26.7L1058.5,74.2z M1021,35.9h26.7l67.4,89.6h-26.7L1021,35.9z
				 M1062.8,66.9l23.8-31h26.9l-37.3,48.6L1062.8,66.9z"/>
			<path class="st0" d="M1146.9,121.9c-7.1-4.2-12.7-9.9-16.9-17.1c-4.1-7.2-6.2-15.3-6.2-24.1c0-8.8,2.1-16.9,6.2-24.1
				c4.1-7.2,9.7-12.9,16.9-17.1c7.1-4.2,14.9-6.3,23.4-6.3c7.8,0,14.6,2,20.4,6.1c5.9,4.1,10.4,9.7,13.5,16.9
				c3.2,7.2,4.8,15.4,4.8,24.6c0,9.2-1.6,17.4-4.8,24.6c-3.2,7.2-7.7,12.8-13.5,16.9c-5.9,4.1-12.7,6.1-20.4,6.1
				C1161.8,128.2,1154.1,126.1,1146.9,121.9z M1187.5,103.5c4.1-2.3,7.3-5.5,9.6-9.6c2.3-4.1,3.5-8.5,3.5-13.3
				c0-4.8-1.2-9.2-3.5-13.3c-2.3-4.1-5.5-7.3-9.6-9.6c-4.1-2.3-8.6-3.5-13.6-3.5c-5,0-9.6,1.1-13.6,3.4c-4.1,2.3-7.3,5.4-9.7,9.5
				c-2.4,4.1-3.6,8.5-3.6,13.4c0,4.9,1.2,9.4,3.6,13.4c2.4,4.1,5.6,7.2,9.8,9.5c4.1,2.3,8.6,3.4,13.5,3.4
				C1178.9,107,1183.5,105.9,1187.5,103.5z M1200.6,0h23.3v125.5h-23.3V0z"/>
		</g>
	</g>
	<g>
		<g>
			<g>
				<circle class="st1" cx="131.5" cy="44.8" r="18.8"/>
			</g>
			<g>
				<circle class="st2" cx="131.5" cy="119.9" r="18.8"/>
			</g>
			<g>
				<circle class="st3" cx="168.7" cy="82.3" r="18.8"/>
			</g>
		</g>
		<g>
			<path class="st4" d="M94,63.7H75v-19C75,34.3,66.7,26,56.3,26h0C46,26,37.7,34.3,37.7,44.6v19h-19C8.4,63.7,0,72,0,82.3v0
				C0,92.6,8.4,101,18.7,101h19v19c0,10.3,8.4,18.7,18.7,18.7h0c10.3,0,18.7-8.4,18.7-18.7v-19h19c10.3,0,18.7-8.4,18.7-18.7v0
				C112.7,72,104.3,63.7,94,63.7z"/>
		</g>
	</g>
</g>
</svg>
